<svg width="84" height="84" viewBox="0 0 84 84" fill="none" xmlns="http://www.w3.org/2000/svg">
<circle cx="42" cy="42" r="42" fill="#F5F5F5"/>
<path d="M22.75 41.5C22.75 34.4294 22.75 30.8931 24.9475 28.6975C27.1431 26.5 30.6794 26.5 37.75 26.5H45.25C52.3206 26.5 55.8569 26.5 58.0525 28.6975C60.25 30.8931 60.25 34.4294 60.25 41.5V45.25C60.25 52.3206 60.25 55.8569 58.0525 58.0525C55.8569 60.25 52.3206 60.25 45.25 60.25H37.75C30.6794 60.25 27.1431 60.25 24.9475 58.0525C22.75 55.8569 22.75 52.3206 22.75 45.25V41.5Z" stroke="#00649C" stroke-width="6.25"/>
<path d="M52.75 49H49M49 49H45.25M49 49V45.25M49 49V52.75" stroke="#00649C" stroke-width="6.25" stroke-linecap="round"/>
<path opacity="0.5" d="M32.125 26.5V23.6875M50.875 26.5V23.6875M22.75 35.875H60.25" stroke="#00649C" stroke-width="6.25" stroke-linecap="round"/>
</svg>
