<svg width="32" height="25" viewBox="0 0 32 25" fill="none" xmlns="http://www.w3.org/2000/svg">
<path d="M14.6563 16.8244C15.9965 15.7927 17.014 14.2897 17.5584 12.5376C18.1027 10.7856 18.145 8.87749 17.6789 7.09552C17.2128 5.31356 16.2631 3.75233 14.9703 2.6427C13.6775 1.53307 12.1101 0.93396 10.5 0.93396C8.88991 0.93396 7.32255 1.53307 6.02972 2.6427C4.73688 3.75233 3.7872 5.31356 3.32111 7.09552C2.85503 8.87749 2.89728 10.7856 3.44162 12.5376C3.98597 14.2897 5.0035 15.7927 6.34375 16.8244C3.91937 17.8575 1.84888 19.7694 0.441251 22.2746C0.367271 22.4018 0.315884 22.5446 0.290078 22.6949C0.264271 22.8452 0.26456 23 0.290928 23.1501C0.317295 23.3003 0.369215 23.4429 0.443669 23.5697C0.518124 23.6964 0.613627 23.8048 0.724629 23.8885C0.835631 23.9723 0.959916 24.0296 1.09026 24.0573C1.22061 24.085 1.35441 24.0824 1.4839 24.0498C1.61338 24.0172 1.73597 23.9551 1.84452 23.8672C1.95308 23.7793 2.04545 23.6674 2.11625 23.5378C3.02424 21.9231 4.2667 20.5962 5.7308 19.6777C7.1949 18.7591 8.83426 18.278 10.5 18.278C12.1657 18.278 13.8051 18.7591 15.2692 19.6777C16.7333 20.5962 17.9758 21.9231 18.8838 23.5378C19.0304 23.7899 19.257 23.9651 19.5145 24.0255C19.772 24.086 20.0397 24.0268 20.2597 23.8608C20.4798 23.6949 20.6345 23.4354 20.6905 23.1386C20.7464 22.8418 20.6991 22.5314 20.5588 22.2746C19.1511 19.7694 17.0806 17.8575 14.6563 16.8244ZM5 9.60935C5 8.35159 5.32257 7.12207 5.92692 6.07627C6.53127 5.03048 7.39025 4.21538 8.39524 3.73406C9.40024 3.25273 10.5061 3.12679 11.573 3.37217C12.6399 3.61755 13.6199 4.22322 14.3891 5.1126C15.1583 6.00197 15.6821 7.1351 15.8943 8.3687C16.1065 9.6023 15.9976 10.881 15.5813 12.043C15.1651 13.205 14.4601 14.1982 13.5556 14.897C12.6512 15.5958 11.5878 15.9687 10.5 15.9687C9.04182 15.9668 7.64383 15.2962 6.61274 14.104C5.58165 12.9118 5.00166 11.2954 5 9.60935ZM31.2675 23.8746C31.0454 24.0421 30.7748 24.1007 30.5153 24.0375C30.2558 23.9744 30.0286 23.7946 29.8838 23.5378C28.9769 21.9221 27.7346 20.5947 26.2702 19.6765C24.8058 18.7583 23.1659 18.2787 21.5 18.2812C21.2348 18.2812 20.9804 18.1594 20.7929 17.9426C20.6054 17.7257 20.5 17.4316 20.5 17.125C20.5 16.8183 20.6054 16.5242 20.7929 16.3074C20.9804 16.0905 21.2348 15.9687 21.5 15.9687C22.31 15.9678 23.1098 15.7601 23.8422 15.3604C24.5747 14.9607 25.2218 14.3789 25.7373 13.6565C26.2527 12.9341 26.6239 12.089 26.8241 11.1815C27.0243 10.2741 27.0488 9.3267 26.8956 8.40707C26.7425 7.48744 26.4156 6.61827 25.9383 5.86165C25.4609 5.10504 24.845 4.47966 24.1344 4.03021C23.4238 3.58075 22.6361 3.31831 21.8276 3.26164C21.0192 3.20496 20.2098 3.35546 19.4575 3.70236C19.3348 3.76367 19.2028 3.79594 19.0691 3.79724C18.9355 3.79855 18.803 3.76887 18.6795 3.70996C18.5559 3.65106 18.4438 3.56411 18.3498 3.45427C18.2559 3.34443 18.1819 3.21392 18.1322 3.07046C18.0826 2.92699 18.0583 2.77347 18.0609 2.61898C18.0634 2.46449 18.0927 2.31216 18.1471 2.17098C18.2014 2.02981 18.2796 1.90266 18.3772 1.79704C18.4747 1.69143 18.5896 1.60949 18.715 1.55607C20.4368 0.762091 22.352 0.733519 24.0909 1.47587C25.8299 2.21822 27.2695 3.67888 28.132 5.57609C28.9945 7.47329 29.2188 9.6726 28.7616 11.7497C28.3044 13.8269 27.1982 15.6347 25.6563 16.8244C28.0806 17.8575 30.1511 19.7694 31.5588 22.2746C31.7036 22.5315 31.7543 22.8443 31.6997 23.1443C31.6451 23.4444 31.4896 23.7071 31.2675 23.8746Z" fill="#545454"/>
</svg>
