<svg width="193" height="60" viewBox="0 0 193 60" fill="none" xmlns="http://www.w3.org/2000/svg">
<path d="M7.40909 24L0.545455 0.727272H7.59091L10.7727 15.0455H10.9545L14.7273 0.727272H20.2727L24.0455 15.0909H24.2273L27.4091 0.727272H34.4545L27.5909 24H21.5455L17.5909 11H17.4091L13.4545 24H7.40909ZM42.9233 24.3182C41.0597 24.3182 39.4536 23.9621 38.1051 23.25C36.7642 22.5303 35.7301 21.5 35.0028 20.1591C34.2831 18.8106 33.9233 17.197 33.9233 15.3182C33.9233 13.5152 34.2869 11.9394 35.0142 10.5909C35.7415 9.24242 36.768 8.19318 38.0938 7.44318C39.4195 6.69318 40.9839 6.31818 42.7869 6.31818C44.1051 6.31818 45.2983 6.52273 46.3665 6.93182C47.4347 7.34091 48.3475 7.93561 49.1051 8.71591C49.8627 9.48864 50.446 10.428 50.8551 11.5341C51.2642 12.6402 51.4688 13.8864 51.4688 15.2727V16.7273H35.8778V13.2727H45.696C45.6884 12.7727 45.5597 12.3333 45.3097 11.9545C45.0672 11.5682 44.7377 11.2689 44.321 11.0568C43.9119 10.8371 43.446 10.7273 42.9233 10.7273C42.4157 10.7273 41.9498 10.8371 41.5256 11.0568C41.1013 11.2689 40.7604 11.5644 40.5028 11.9432C40.2528 12.322 40.1203 12.7652 40.1051 13.2727V17C40.1051 17.5606 40.2225 18.0606 40.4574 18.5C40.6922 18.9394 41.0294 19.2841 41.4688 19.5341C41.9081 19.7841 42.4384 19.9091 43.0597 19.9091C43.4915 19.9091 43.8854 19.8485 44.2415 19.7273C44.6051 19.6061 44.9157 19.4318 45.1733 19.2045C45.4309 18.9697 45.6203 18.6894 45.7415 18.3636H51.4688C51.2718 19.5758 50.8059 20.6288 50.071 21.5227C49.3362 22.4091 48.3627 23.0985 47.1506 23.5909C45.946 24.0758 44.5369 24.3182 42.9233 24.3182ZM75.6648 9.45455H69.2557C69.2102 8.92424 69.089 8.44318 68.892 8.01136C68.7027 7.57955 68.4375 7.20833 68.0966 6.89773C67.7633 6.57954 67.358 6.33712 66.8807 6.17045C66.4034 5.99621 65.8617 5.90909 65.2557 5.90909C64.1951 5.90909 63.2973 6.16667 62.5625 6.68182C61.8352 7.19697 61.2822 7.93561 60.9034 8.89773C60.5322 9.85985 60.3466 11.0152 60.3466 12.3636C60.3466 13.7879 60.536 14.9811 60.9148 15.9432C61.3011 16.8977 61.858 17.6174 62.5852 18.1023C63.3125 18.5795 64.1875 18.8182 65.2102 18.8182C65.7936 18.8182 66.3163 18.7462 66.7784 18.6023C67.2405 18.4508 67.642 18.2348 67.983 17.9545C68.3239 17.6742 68.6004 17.3371 68.8125 16.9432C69.0322 16.5417 69.1799 16.0909 69.2557 15.5909L75.6648 15.6364C75.589 16.6212 75.3125 17.625 74.8352 18.6477C74.358 19.6629 73.6799 20.6023 72.8011 21.4659C71.9299 22.322 70.8504 23.0114 69.5625 23.5341C68.2746 24.0568 66.7784 24.3182 65.0739 24.3182C62.9375 24.3182 61.0208 23.8598 59.3239 22.9432C57.6345 22.0265 56.2973 20.678 55.3125 18.8977C54.3352 17.1174 53.8466 14.9394 53.8466 12.3636C53.8466 9.77273 54.3466 7.59091 55.3466 5.81818C56.3466 4.03788 57.6951 2.69318 59.392 1.78409C61.089 0.867423 62.983 0.40909 65.0739 0.40909C66.5436 0.40909 67.8958 0.609847 69.1307 1.01136C70.3655 1.41288 71.4489 2 72.3807 2.77273C73.3125 3.53788 74.0625 4.48106 74.6307 5.60227C75.1989 6.72348 75.5436 8.00758 75.6648 9.45455ZM83.4858 24.2727C82.3722 24.2727 81.3873 24.0909 80.5312 23.7273C79.6828 23.3561 79.0161 22.7955 78.5312 22.0455C78.0464 21.2955 77.804 20.3409 77.804 19.1818C77.804 18.2273 77.9669 17.4129 78.2926 16.7386C78.6184 16.0568 79.0729 15.5 79.6562 15.0682C80.2396 14.6364 80.9176 14.3068 81.6903 14.0795C82.4706 13.8523 83.3116 13.7045 84.2131 13.6364C85.1903 13.5606 85.9744 13.4697 86.5653 13.3636C87.1638 13.25 87.5956 13.0947 87.8608 12.8977C88.1259 12.6932 88.2585 12.4242 88.2585 12.0909V12.0455C88.2585 11.5909 88.0843 11.2424 87.7358 11C87.3873 10.7576 86.9403 10.6364 86.3949 10.6364C85.7964 10.6364 85.3078 10.7689 84.929 11.0341C84.5578 11.2917 84.3343 11.6894 84.2585 12.2273H78.4858C78.5616 11.1667 78.8987 10.1894 79.4972 9.29545C80.1032 8.39394 80.9858 7.67424 82.1449 7.13636C83.304 6.59091 84.7509 6.31818 86.4858 6.31818C87.7358 6.31818 88.857 6.46591 89.8494 6.76136C90.8419 7.04924 91.6866 7.45455 92.3835 7.97727C93.0805 8.49242 93.6108 9.09848 93.9744 9.79545C94.3456 10.4848 94.5312 11.2348 94.5312 12.0455V24H88.6676V21.5455H88.5312C88.1828 22.197 87.7585 22.7235 87.2585 23.125C86.7661 23.5265 86.2017 23.8182 85.5653 24C84.9366 24.1818 84.2434 24.2727 83.4858 24.2727ZM85.5312 20.3182C86.0085 20.3182 86.4555 20.2197 86.8722 20.0227C87.2964 19.8258 87.6411 19.5417 87.9062 19.1705C88.1714 18.7992 88.304 18.3485 88.304 17.8182V16.3636C88.1373 16.4318 87.9593 16.4962 87.7699 16.5568C87.5881 16.6174 87.3911 16.6742 87.179 16.7273C86.9744 16.7803 86.7547 16.8295 86.5199 16.875C86.2926 16.9205 86.054 16.9621 85.804 17C85.3191 17.0758 84.9214 17.2008 84.6108 17.375C84.3078 17.5417 84.0805 17.75 83.929 18C83.785 18.2424 83.7131 18.5152 83.7131 18.8182C83.7131 19.303 83.8835 19.6742 84.2244 19.9318C84.5653 20.1894 85.0009 20.3182 85.5312 20.3182ZM103.801 14.1818V24H97.5284V6.54545H103.483V9.86364H103.665C104.044 8.75758 104.71 7.89015 105.665 7.26136C106.627 6.63258 107.748 6.31818 109.028 6.31818C110.263 6.31818 111.335 6.60227 112.244 7.17045C113.161 7.73106 113.869 8.50379 114.369 9.48864C114.877 10.4735 115.127 11.5985 115.119 12.8636V24H108.847V14.1818C108.854 13.3182 108.634 12.6402 108.188 12.1477C107.748 11.6553 107.134 11.4091 106.347 11.4091C105.831 11.4091 105.381 11.5227 104.994 11.75C104.616 11.9697 104.324 12.2879 104.119 12.7045C103.915 13.1136 103.809 13.6061 103.801 14.1818ZM116.02 5.81818V0.727272H136.247V5.81818H129.247V24H123.02V5.81818H116.02ZM144.548 24.3182C142.685 24.3182 141.079 23.9621 139.73 23.25C138.389 22.5303 137.355 21.5 136.628 20.1591C135.908 18.8106 135.548 17.197 135.548 15.3182C135.548 13.5152 135.912 11.9394 136.639 10.5909C137.366 9.24242 138.393 8.19318 139.719 7.44318C141.045 6.69318 142.609 6.31818 144.412 6.31818C145.73 6.31818 146.923 6.52273 147.991 6.93182C149.06 7.34091 149.973 7.93561 150.73 8.71591C151.488 9.48864 152.071 10.428 152.48 11.5341C152.889 12.6402 153.094 13.8864 153.094 15.2727V16.7273H137.503V13.2727H147.321C147.313 12.7727 147.185 12.3333 146.935 11.9545C146.692 11.5682 146.363 11.2689 145.946 11.0568C145.537 10.8371 145.071 10.7273 144.548 10.7273C144.041 10.7273 143.575 10.8371 143.151 11.0568C142.726 11.2689 142.385 11.5644 142.128 11.9432C141.878 12.322 141.745 12.7652 141.73 13.2727V17C141.73 17.5606 141.848 18.0606 142.082 18.5C142.317 18.9394 142.654 19.2841 143.094 19.5341C143.533 19.7841 144.063 19.9091 144.685 19.9091C145.116 19.9091 145.51 19.8485 145.866 19.7273C146.23 19.6061 146.541 19.4318 146.798 19.2045C147.056 18.9697 147.245 18.6894 147.366 18.3636H153.094C152.897 19.5758 152.431 20.6288 151.696 21.5227C150.961 22.4091 149.988 23.0985 148.776 23.5909C147.571 24.0758 146.162 24.3182 144.548 24.3182ZM164.062 24.3182C162.169 24.3182 160.547 23.9432 159.199 23.1932C157.85 22.4356 156.816 21.3826 156.097 20.0341C155.377 18.678 155.017 17.1061 155.017 15.3182C155.017 13.5303 155.377 11.9621 156.097 10.6136C156.816 9.25758 157.85 8.20454 159.199 7.45454C160.547 6.69697 162.169 6.31818 164.062 6.31818C165.775 6.31818 167.256 6.62879 168.506 7.25C169.763 7.86364 170.737 8.73485 171.426 9.86364C172.116 10.9848 172.464 12.303 172.472 13.8182H166.653C166.57 12.9015 166.305 12.2045 165.858 11.7273C165.419 11.2424 164.85 11 164.153 11C163.608 11 163.131 11.1591 162.722 11.4773C162.313 11.7879 161.994 12.2614 161.767 12.8977C161.54 13.5265 161.426 14.3182 161.426 15.2727C161.426 16.2273 161.54 17.0227 161.767 17.6591C161.994 18.2879 162.313 18.7614 162.722 19.0795C163.131 19.3902 163.608 19.5455 164.153 19.5455C164.616 19.5455 165.025 19.4394 165.381 19.2273C165.737 19.0076 166.025 18.6894 166.244 18.2727C166.472 17.8485 166.608 17.3333 166.653 16.7273H172.472C172.449 18.2652 172.097 19.6061 171.415 20.75C170.733 21.8864 169.767 22.7652 168.517 23.3864C167.275 24.0076 165.79 24.3182 164.062 24.3182ZM181.332 14.1818V24H175.06V0.727272H181.105V9.86364H181.287C181.681 8.75 182.336 7.88258 183.253 7.26136C184.17 6.63258 185.272 6.31818 186.56 6.31818C187.795 6.31818 188.866 6.59848 189.776 7.15909C190.692 7.7197 191.401 8.49242 191.901 9.47727C192.408 10.4621 192.658 11.5909 192.651 12.8636V24H186.378V14.1818C186.385 13.3182 186.17 12.6402 185.73 12.1477C185.298 11.6553 184.681 11.4091 183.878 11.4091C183.37 11.4091 182.923 11.5227 182.537 11.75C182.158 11.9697 181.863 12.2879 181.651 12.7045C181.446 13.1136 181.34 13.6061 181.332 14.1818ZM1.5 29.7273H9.36364L14.7727 42.9091H15.0455L20.4545 29.7273H28.3182V53H22.1364V39.5455H21.9545L16.7727 52.8182H13.0455L7.86364 39.4545H7.68182V53H1.5V29.7273ZM39.767 53.3182C37.9034 53.3182 36.2973 52.9621 34.9489 52.25C33.608 51.5303 32.5739 50.5 31.8466 49.1591C31.1269 47.8106 30.767 46.197 30.767 44.3182C30.767 42.5152 31.1307 40.9394 31.858 39.5909C32.5852 38.2424 33.6117 37.1932 34.9375 36.4432C36.2633 35.6932 37.8277 35.3182 39.6307 35.3182C40.9489 35.3182 42.142 35.5227 43.2102 35.9318C44.2784 36.3409 45.1913 36.9356 45.9489 37.7159C46.7064 38.4886 47.2898 39.428 47.6989 40.5341C48.108 41.6402 48.3125 42.8864 48.3125 44.2727V45.7273H32.7216V42.2727H42.5398C42.5322 41.7727 42.4034 41.3333 42.1534 40.9545C41.911 40.5682 41.5814 40.2689 41.1648 40.0568C40.7557 39.8371 40.2898 39.7273 39.767 39.7273C39.2595 39.7273 38.7936 39.8371 38.3693 40.0568C37.9451 40.2689 37.6042 40.5644 37.3466 40.9432C37.0966 41.322 36.964 41.7652 36.9489 42.2727V46C36.9489 46.5606 37.0663 47.0606 37.3011 47.5C37.536 47.9394 37.8731 48.2841 38.3125 48.5341C38.7519 48.7841 39.2822 48.9091 39.9034 48.9091C40.3352 48.9091 40.7292 48.8485 41.0852 48.7273C41.4489 48.6061 41.7595 48.4318 42.017 48.2045C42.2746 47.9697 42.464 47.6894 42.5852 47.3636H48.3125C48.1155 48.5758 47.6496 49.6288 46.9148 50.5227C46.1799 51.4091 45.2064 52.0985 43.9943 52.5909C42.7898 53.0758 41.3807 53.3182 39.767 53.3182ZM57.1449 43.1818V53H50.8722V35.5455H56.8267V38.8636H57.0085C57.3873 37.7576 58.054 36.8902 59.0085 36.2614C59.9706 35.6326 61.0919 35.3182 62.3722 35.3182C63.607 35.3182 64.679 35.6023 65.5881 36.1705C66.5047 36.7311 67.2131 37.5038 67.7131 38.4886C68.2206 39.4735 68.4706 40.5985 68.4631 41.8636V53H62.1903V43.1818C62.1979 42.3182 61.9782 41.6402 61.5312 41.1477C61.0919 40.6553 60.4782 40.4091 59.6903 40.4091C59.1752 40.4091 58.7244 40.5227 58.3381 40.75C57.9593 40.9697 57.6676 41.2879 57.4631 41.7045C57.2585 42.1136 57.1525 42.6061 57.1449 43.1818ZM81.9688 35.5455V40.0909H70.4688V35.5455H81.9688ZM72.696 31.3636H78.9688V47.3864C78.9688 47.6288 79.0104 47.8333 79.0938 48C79.1771 48.1591 79.3059 48.2803 79.4801 48.3636C79.6544 48.4394 79.8778 48.4773 80.1506 48.4773C80.34 48.4773 80.5597 48.4545 80.8097 48.4091C81.0672 48.3636 81.2566 48.3258 81.3778 48.2955L82.2869 52.7045C82.0066 52.7879 81.6051 52.8902 81.0824 53.0114C80.5672 53.1326 79.9536 53.2121 79.2415 53.25C77.8021 53.3258 76.5938 53.178 75.6165 52.8068C74.6392 52.428 73.9044 51.8333 73.4119 51.0227C72.9195 50.2121 72.6809 49.197 72.696 47.9773V31.3636ZM92.75 53.3182C90.8561 53.3182 89.2348 52.9432 87.8864 52.1932C86.5379 51.4356 85.5038 50.3826 84.7841 49.0341C84.0644 47.678 83.7045 46.1061 83.7045 44.3182C83.7045 42.5303 84.0644 40.9621 84.7841 39.6136C85.5038 38.2576 86.5379 37.2045 87.8864 36.4545C89.2348 35.697 90.8561 35.3182 92.75 35.3182C94.6439 35.3182 96.2652 35.697 97.6136 36.4545C98.9621 37.2045 99.9962 38.2576 100.716 39.6136C101.436 40.9621 101.795 42.5303 101.795 44.3182C101.795 46.1061 101.436 47.678 100.716 49.0341C99.9962 50.3826 98.9621 51.4356 97.6136 52.1932C96.2652 52.9432 94.6439 53.3182 92.75 53.3182ZM92.7955 48.6818C93.3258 48.6818 93.7841 48.5038 94.1705 48.1477C94.5568 47.7917 94.8561 47.2841 95.0682 46.625C95.2803 45.9659 95.3864 45.1818 95.3864 44.2727C95.3864 43.3561 95.2803 42.572 95.0682 41.9205C94.8561 41.2614 94.5568 40.7538 94.1705 40.3977C93.7841 40.0417 93.3258 39.8636 92.7955 39.8636C92.2348 39.8636 91.7538 40.0417 91.3523 40.3977C90.9508 40.7538 90.6439 41.2614 90.4318 41.9205C90.2197 42.572 90.1136 43.3561 90.1136 44.2727C90.1136 45.1818 90.2197 45.9659 90.4318 46.625C90.6439 47.2841 90.9508 47.7917 91.3523 48.1477C91.7538 48.5038 92.2348 48.6818 92.7955 48.6818ZM104.341 53V35.5455H110.432V38.8636H110.614C110.932 37.6364 111.436 36.7386 112.125 36.1705C112.822 35.6023 113.636 35.3182 114.568 35.3182C114.841 35.3182 115.11 35.3409 115.375 35.3864C115.648 35.4242 115.909 35.4811 116.159 35.5568V40.9091C115.848 40.803 115.466 40.7235 115.011 40.6705C114.557 40.6174 114.167 40.5909 113.841 40.5909C113.227 40.5909 112.674 40.7311 112.182 41.0114C111.697 41.2841 111.314 41.6705 111.034 42.1705C110.754 42.6629 110.614 43.2424 110.614 43.9091V53H104.341ZM118.216 53V35.5455H124.489V53H118.216ZM121.352 33.7273C120.504 33.7273 119.777 33.447 119.17 32.8864C118.564 32.3258 118.261 31.6515 118.261 30.8636C118.261 30.0758 118.564 29.4015 119.17 28.8409C119.777 28.2803 120.504 28 121.352 28C122.208 28 122.936 28.2803 123.534 28.8409C124.14 29.4015 124.443 30.0758 124.443 30.8636C124.443 31.6515 124.14 32.3258 123.534 32.8864C122.936 33.447 122.208 33.7273 121.352 33.7273ZM133.957 43.1818V53H127.685V35.5455H133.639V38.8636H133.821C134.2 37.7576 134.866 36.8902 135.821 36.2614C136.783 35.6326 137.904 35.3182 139.185 35.3182C140.42 35.3182 141.491 35.6023 142.401 36.1705C143.317 36.7311 144.026 37.5038 144.526 38.4886C145.033 39.4735 145.283 40.5985 145.276 41.8636V53H139.003V43.1818C139.01 42.3182 138.791 41.6402 138.344 41.1477C137.904 40.6553 137.291 40.4091 136.503 40.4091C135.988 40.4091 135.537 40.5227 135.151 40.75C134.772 40.9697 134.48 41.2879 134.276 41.7045C134.071 42.1136 133.965 42.6061 133.957 43.1818ZM156.781 59.9091C155.031 59.9091 153.531 59.6591 152.281 59.1591C151.039 58.6667 150.073 57.9848 149.384 57.1136C148.702 56.25 148.319 55.2576 148.236 54.1364H154.281C154.342 54.5076 154.493 54.8068 154.736 55.0341C154.978 55.2614 155.289 55.4242 155.668 55.5227C156.054 55.6288 156.486 55.6818 156.963 55.6818C157.774 55.6818 158.444 55.4848 158.974 55.0909C159.512 54.697 159.781 53.9848 159.781 52.9545V50H159.599C159.372 50.5909 159.024 51.0947 158.554 51.5114C158.084 51.9205 157.52 52.2348 156.861 52.4545C156.202 52.6667 155.478 52.7727 154.69 52.7727C153.448 52.7727 152.304 52.4848 151.259 51.9091C150.221 51.3333 149.387 50.4205 148.759 49.1705C148.137 47.9205 147.827 46.2879 147.827 44.2727C147.827 42.1667 148.152 40.4545 148.804 39.1364C149.463 37.8182 150.312 36.8523 151.349 36.2386C152.395 35.625 153.493 35.3182 154.645 35.3182C155.509 35.3182 156.266 35.4697 156.918 35.7727C157.569 36.0682 158.115 36.4659 158.554 36.9659C158.993 37.4583 159.327 38 159.554 38.5909H159.69V35.5455H165.963V52.9545C165.963 54.4318 165.58 55.6856 164.815 56.7159C164.058 57.7538 162.99 58.5455 161.611 59.0909C160.232 59.6364 158.622 59.9091 156.781 59.9091ZM157.009 48.3182C157.584 48.3182 158.077 48.1591 158.486 47.8409C158.902 47.5152 159.221 47.053 159.44 46.4545C159.668 45.8485 159.781 45.1212 159.781 44.2727C159.781 43.4091 159.668 42.6705 159.44 42.0568C159.221 41.4356 158.902 40.9621 158.486 40.6364C158.077 40.303 157.584 40.1364 157.009 40.1364C156.433 40.1364 155.94 40.303 155.531 40.6364C155.13 40.9621 154.819 41.4356 154.599 42.0568C154.387 42.6705 154.281 43.4091 154.281 44.2727C154.281 45.1364 154.387 45.8712 154.599 46.4773C154.819 47.0758 155.13 47.5341 155.531 47.8523C155.94 48.1629 156.433 48.3182 157.009 48.3182Z" fill="white"/>
</svg>
