<svg width="27" height="29" viewBox="0 0 27 29" fill="none" xmlns="http://www.w3.org/2000/svg">
<path d="M24.222 24.7338L18.9411 19.063C20.4717 17.0893 21.235 14.5578 21.0721 11.9951C20.9092 9.43235 19.8327 7.03575 18.0665 5.30381C16.3004 3.57187 13.9806 2.63794 11.5896 2.69631C9.19874 2.75467 6.92082 3.80083 5.22975 5.61716C3.53868 7.43349 2.56467 9.88014 2.51034 12.4482C2.456 15.0162 3.32552 17.5078 4.93801 19.4048C6.55051 21.3018 8.78183 22.458 11.1678 22.633C13.5538 22.8079 15.9107 21.9882 17.7483 20.3442L23.028 26.0162C23.1064 26.1004 23.1995 26.1672 23.3019 26.2127C23.4044 26.2583 23.5141 26.2818 23.625 26.2818C23.7359 26.2818 23.8456 26.2583 23.9481 26.2127C24.0505 26.1672 24.1436 26.1004 24.222 26.0162C24.3003 25.932 24.3625 25.832 24.405 25.722C24.4474 25.612 24.4692 25.4941 24.4692 25.375C24.4692 25.2559 24.4474 25.138 24.405 25.028C24.3625 24.918 24.3003 24.818 24.222 24.7338ZM4.21875 12.6875C4.21875 11.0744 4.66411 9.49743 5.49852 8.15614C6.33294 6.81486 7.51892 5.76945 8.90649 5.15212C10.2941 4.53479 11.8209 4.37327 13.294 4.68798C14.767 5.0027 16.1201 5.7795 17.1821 6.92017C18.2441 8.06085 18.9673 9.51415 19.2603 11.0963C19.5533 12.6785 19.403 14.3184 18.8282 15.8088C18.2535 17.2991 17.2801 18.573 16.0314 19.4692C14.7826 20.3654 13.3144 20.8438 11.8125 20.8438C9.79919 20.8414 7.86899 19.9813 6.44537 18.4522C5.02175 16.9231 4.22098 14.85 4.21875 12.6875Z" fill="#545454"/>
</svg>
