<svg width="100" height="100" viewBox="0 0 100 100" fill="none" xmlns="http://www.w3.org/2000/svg">
<circle cx="50" cy="50" r="50" fill="#D9D9D9"/>
<path d="M43.003 46.6669C40.9363 46.6669 39.2141 45.8919 37.8363 44.3419C36.4585 42.7919 35.9132 40.9836 36.2002 38.9169L37.3197 30.478C37.7789 27.2058 39.2715 24.4927 41.7974 22.3388C44.3234 20.1848 47.2798 19.109 50.6669 19.1113C54.0539 19.1113 57.0104 20.1883 59.5363 22.3422C62.0623 24.4961 63.5548 27.2081 64.0141 30.478L65.1335 38.9169C65.4206 40.9836 64.8752 42.7919 63.4974 44.3419C62.1197 45.8919 60.3974 46.6669 58.3308 46.6669H43.003ZM23.1113 74.2224V64.578C23.1113 62.6261 23.6142 60.8316 24.62 59.1943C25.6258 57.5571 26.9599 56.309 28.6224 55.4502C32.1817 53.6706 35.7984 52.3353 39.4724 51.4443C43.1465 50.5534 46.878 50.109 50.6669 50.1113C54.4558 50.1113 58.1873 50.5568 61.8613 51.4478C65.5354 52.3387 69.1521 53.6729 72.7113 55.4502C74.3761 56.3113 75.7114 57.5605 76.7172 59.1978C77.723 60.835 78.2247 62.6284 78.2224 64.578V74.2224H23.1113Z" fill="white"/>
</svg>
