<svg width="21" height="19" viewBox="0 0 21 19" fill="none" xmlns="http://www.w3.org/2000/svg">
<path d="M8.58334 11.25L19.125 1.625M8.58334 11.25L11.9375 17.375C11.9796 17.4588 12.0471 17.5298 12.132 17.5795C12.2169 17.6293 12.3157 17.6558 12.4167 17.6558C12.5176 17.6558 12.6164 17.6293 12.7013 17.5795C12.7863 17.5298 12.8538 17.4588 12.8958 17.375L19.125 1.625M8.58334 11.25L1.87501 8.1875C1.78325 8.14911 1.7055 8.08747 1.65099 8.00992C1.59648 7.93236 1.5675 7.84215 1.5675 7.75C1.5675 7.65785 1.59648 7.56763 1.65099 7.49008C1.7055 7.41252 1.78325 7.35089 1.87501 7.3125L19.125 1.625" stroke="white" stroke-width="2" stroke-linecap="round" stroke-linejoin="round"/>
</svg>
